<svg width="48" height="48" viewBox="0 0 48 48" fill="none" xmlns="http://www.w3.org/2000/svg">
<g id="&#240;&#159;&#166;&#134; icon &#34;vpn key&#34;">
<path id="Vector" d="M25.3004 20.0002C23.4004 14.6202 17.8004 11.0002 11.5404 12.2402C6.96037 13.1602 3.24037 16.8202 2.28037 21.4002C0.640368 29.1402 6.52037 36.0002 14.0004 36.0002C19.2204 36.0002 23.6604 32.6602 25.3004 28.0002H34.0004V32.0002C34.0004 34.2002 35.8004 36.0002 38.0004 36.0002C40.2004 36.0002 42.0004 34.2002 42.0004 32.0002V28.0002C44.2004 28.0002 46.0004 26.2002 46.0004 24.0002C46.0004 21.8002 44.2004 20.0002 42.0004 20.0002H25.3004ZM14.0004 28.0002C11.8004 28.0002 10.0004 26.2002 10.0004 24.0002C10.0004 21.8002 11.8004 20.0002 14.0004 20.0002C16.2004 20.0002 18.0004 21.8002 18.0004 24.0002C18.0004 26.2002 16.2004 28.0002 14.0004 28.0002Z" fill="black"/>
</g>
</svg>
