<svg width="29" height="29" viewBox="0 0 29 29" fill="none" xmlns="http://www.w3.org/2000/svg">
<path id="Vector" d="M26.998 13.009H16.5687V2.57976C16.5687 2.11876 16.3856 1.67664 16.0596 1.35066C15.7336 1.02469 15.2915 0.841553 14.8305 0.841553C14.3695 0.841553 13.9274 1.02469 13.6014 1.35066C13.2754 1.67664 13.0923 2.11876 13.0923 2.57976V13.009H2.66302C2.20201 13.009 1.75989 13.1922 1.43392 13.5181C1.10794 13.8441 0.924805 14.2862 0.924805 14.7472C0.924805 15.2082 1.10794 15.6504 1.43392 15.9763C1.75989 16.3023 2.20201 16.4855 2.66302 16.4855H13.0923V26.9147C13.0923 27.3757 13.2754 27.8179 13.6014 28.1438C13.9274 28.4698 14.3695 28.6529 14.8305 28.6529C15.2915 28.6529 15.7336 28.4698 16.0596 28.1438C16.3856 27.8179 16.5687 27.3757 16.5687 26.9147V16.4855H26.998C27.459 16.4855 27.9011 16.3023 28.2271 15.9763C28.5531 15.6504 28.7362 15.2082 28.7362 14.7472C28.7362 14.2862 28.5531 13.8441 28.2271 13.5181C27.9011 13.1922 27.459 13.009 26.998 13.009Z" fill="#363636"/>
</svg>
