<svg width="18" height="18" viewBox="0 0 18 18" fill="none" xmlns="http://www.w3.org/2000/svg">
<g id="Group 21">
<g id="&#240;&#159;&#166;&#134; icon &#34;search normal 1&#34;">
<g id="Group">
<path id="Vector" d="M8.99987 18C13.9609 18 18 13.961 18 9C18 4.03902 13.9609 0 8.99987 0C4.03882 0 -0.000258982 4.03902 -0.000258982 9C-0.000258982 13.961 4.03882 18 8.99987 18ZM8.99987 1.31707C13.2409 1.31707 16.6829 4.7678 16.6829 9C16.6829 13.2322 13.2409 16.6829 8.99987 16.6829C4.75883 16.6829 1.31683 13.2322 1.31683 9C1.31683 4.7678 4.75883 1.31707 8.99987 1.31707Z" fill="white"/>
<path id="Vector_2" d="M0.761354 16.9247C0.928185 16.9247 1.09502 16.8633 1.22673 16.7316L2.98285 14.9755C3.23749 14.7208 3.23749 14.2994 2.98285 14.0447C2.72821 13.7901 2.30674 13.7901 2.05211 14.0447L0.295982 15.8008C0.0413445 16.0555 0.0413445 16.4769 0.295982 16.7316C0.427692 16.8633 0.594522 16.9247 0.761354 16.9247Z" fill="white"/>
</g>
</g>
</g>
</svg>
